<svg width="1080" height="407" viewBox="0 0 1080 407" fill="none" xmlns="http://www.w3.org/2000/svg">
<path d="M399.37 270.55L392.67 278.16C344.12 317.8 279.66 301.14 257.61 242.22C244.92 208.31 247.85 170.44 257.17 136.05C287.95 162.84 279.43 208.82 298.63 241.56C319.93 277.9 361.47 289.61 399.37 270.55Z" fill="#558DCA"/>
<path d="M112.99 180.24C114.34 132.66 149.14 82.4501 200.4 82.1801C203.3 82.1601 206.04 80.9501 205.23 85.1101C198.47 92.5401 190.13 99.1901 184.1 107.23C177.64 102.8 165.04 110.54 159.08 113.92C133 128.73 122.97 153.37 112.98 180.24H112.99Z" fill="#558DCA"/>
<path d="M917.49 179.92C920.81 178.26 921.66 174.21 925.14 171.23C949.44 150.39 990.7 150.67 1002.16 184.63C1012.18 214.32 998.26 284.38 1009.97 303.63C1013.2 308.94 1020.96 308.76 1019.36 316.34H950.17C948.35 308.96 955.3 308.86 957.92 305.31C965.16 295.49 964.92 225.16 963.6 209.73C963.12 204.14 961.69 194.23 958.75 189.6C949.38 174.78 919.51 182.14 917.39 198.08C915.07 215.5 915.3 274.64 917.66 292.16C918.1 295.4 919.83 300.93 921.58 303.61C925.07 308.95 932.42 308.87 930.94 316.35H861.75C861.41 304.36 871.52 307.89 873.28 292.33C879.02 241.65 868.92 180.72 873.37 128.93C874.72 117.63 864.25 115.64 859.83 107.91L913.51 90.3903C914.78 88.8303 917.49 92.2403 917.49 92.5103V179.93V179.92Z" fill="#1172C7"/>
<path d="M644.55 316.33C645.43 306.14 654.24 305.82 655.91 294.06C658.53 275.62 658.24 219.05 656.08 200.09C654.15 183.13 641.42 178.18 625.84 183.31C614.13 187.17 610.99 196.58 609.98 207.8C608.39 225.56 607.86 283.97 612.72 299.14C614.89 305.91 624.61 308.33 623.4 316.32H554.21C552.61 308.75 560.37 308.93 563.6 303.61C565.41 300.64 567.03 293.76 567.45 290.17C569.96 268.92 569.81 219.62 567.76 198.06C567.32 193.4 566.52 188.73 563.56 184.98C559.89 180.34 551.67 180.83 554.22 175.12C555.41 172.46 603.02 158.79 609.95 158.77L610.9 179.9C626.01 161.32 647.84 152.14 671.51 159.68C724.31 176.5 685.16 280.11 705.16 304.73C706.03 305.8 720.29 316.33 710.85 316.33H644.54H644.55Z" fill="#1172C7"/>
<path d="M469.22 157.39C572.68 155.6 570.01 320.26 470.6 320.35C370.33 320.44 367.2 159.15 469.22 157.39ZM467.32 168.79C445.05 170.74 440.01 203.5 438.91 221.24C437.64 241.73 440.84 308.66 470.6 308.66C500.02 308.66 501.83 249.15 500.47 228.82C499.27 210.93 492.07 166.62 467.32 168.78V168.79Z" fill="#1172C7"/>
<path d="M854.06 270.23C855.8 272.48 842.45 293.78 839.67 297.14C812.6 329.79 765.08 325.45 738.69 294.28C705.78 255.41 717.3 180.32 768.17 162.26C790.96 154.17 835.4 156.84 847.14 182.04C861.72 213.34 822.08 228.96 810.11 205.61C803.81 193.32 819.19 167.5 793.68 168.51C758.86 169.89 761.52 238 769.93 261.14C779.8 288.29 808.99 302.45 833.88 283.67C838.33 280.31 844.55 270.29 846.41 269.14C848.05 268.13 853.83 269.93 854.07 270.24L854.06 270.23Z" fill="#1172C7"/>
<path d="M295.19 55.9102C349.2 50.4202 431.88 71.1301 422.28 140.68C417.93 172.16 374.78 186.28 354.17 161.06C333.8 136.13 366.79 116.12 349.77 88.6002C333.96 63.0202 295.14 71.4002 275.44 88.0502C243.13 115.37 234.21 175.85 240.07 215.54C253.84 308.77 350.36 345.47 413.81 270.55C418.46 265.06 423.81 250.23 430.61 251.61C445.28 254.59 436.37 266.64 431.67 274.96C393.94 341.81 307.98 371.26 238.16 336.57C111.05 273.42 153.09 70.3502 295.18 55.9002L295.19 55.9102Z" fill="#1172C7"/>
<path d="M184.1 107.22C151.74 150.43 144.27 209.67 159.1 260.92C124.63 248.96 112.01 214.25 112.98 180.23C122.97 153.36 133 128.72 159.08 113.91C165.04 110.53 177.64 102.79 184.1 107.22Z" fill="#1172C7"/>
<path d="M141.82 95.72C112.51 123.22 105.97 152.16 103.39 190.84C103.25 192.95 104.43 197.23 100.53 195.59C99.2799 195.07 88.4899 183.95 87.1699 182.03C63.3799 147.35 97.9799 87.12 141.83 95.71L141.82 95.72Z" fill="#1172C7"/>
<path d="M89.92 107.24C78.66 117.8 77.56 129.98 72.82 142.98C69.61 151.78 61.59 131.99 60.76 127.56C57.69 111.31 76.52 105.28 89.92 107.24Z" fill="#1172C7"/>
</svg>
